<?xml version="1.0" encoding="UTF-8"?>
<svg width="451px" height="143px" viewBox="0 0 451 143" version="1.1" xmlns="http://www.w3.org/2000/svg" xmlns:xlink="http://www.w3.org/1999/xlink">
    <!-- Generator: Sketch 50.2 (55047) - http://www.bohemiancoding.com/sketch -->
    <title>logo</title>
    <desc>Created with Sketch.</desc>
    <defs></defs>
    <g id="Page-1" stroke="none" stroke-width="1" fill="none" fill-rule="evenodd">
        <g id="Artboard" transform="translate(-269.000000, -233.000000)" fill-rule="nonzero">
            <g id="logo" transform="translate(269.000000, 233.000000)">
                <g id="VOTE-FORWARD" transform="translate(177.767740, 0.500000)" fill="#15466D">
                    <path d="M21.2737747,64.9981712 L13.1263716,64.9981712 L0,0.543160205 L9.77688369,0.543160205 L17.1095465,45.5349305 L17.2905999,45.5349305 L24.7137893,0.543160205 L34.490673,0.543160205 L21.2737747,64.9981712 Z M39.4696416,15.7516459 C39.4696416,13.1565342 39.9222705,10.8632141 40.8275421,8.87161668 C41.7328136,6.8800193 42.9247366,5.23546735 44.4033467,3.93791149 C45.8819569,2.64035562 47.5415965,1.6596595 49.3823153,0.995793709 C51.2230341,0.331927917 53.0788129,0 54.9497074,0 C56.8206019,0 58.6763807,0.331927917 60.5170995,0.995793709 C62.3578183,1.6596595 64.0174579,2.64035562 65.496068,3.93791149 C66.9746782,5.23546735 68.1666012,6.8800193 69.0718727,8.87161668 C69.9771442,10.8632141 70.4297732,13.1565342 70.4297732,15.7516459 L70.4297732,49.7896854 C70.4297732,52.4451486 69.9771442,54.7535564 69.0718727,56.7149781 C68.1666012,58.6763997 66.9746782,60.305864 65.496068,61.6034199 C64.0174579,62.9009758 62.3578183,63.8816719 60.5170995,64.5455377 C58.6763807,65.2094035 56.8206019,65.5413314 54.9497074,65.5413314 C53.0788129,65.5413314 51.2230341,65.2094035 49.3823153,64.5455377 C47.5415965,63.8816719 45.8819569,62.9009758 44.4033467,61.6034199 C42.9247366,60.305864 41.7328136,58.6763997 40.8275421,56.7149781 C39.9222705,54.7535564 39.4696416,52.4451486 39.4696416,49.7896854 L39.4696416,15.7516459 Z M48.703365,49.7896854 C48.703365,52.0226886 49.321958,53.6672405 50.5591624,54.7233906 C51.7963668,55.7795408 53.2598672,56.3076079 54.9497074,56.3076079 C56.6395476,56.3076079 58.1030479,55.7795408 59.3402524,54.7233906 C60.5774568,53.6672405 61.1960497,52.0226886 61.1960497,49.7896854 L61.1960497,15.7516459 C61.1960497,13.5186428 60.5774568,11.8740909 59.3402524,10.8179407 C58.1030479,9.76179062 56.6395476,9.23372348 54.9497074,9.23372348 C53.2598672,9.23372348 51.7963668,9.76179062 50.5591624,10.8179407 C49.321958,11.8740909 48.703365,13.5186428 48.703365,15.7516459 L48.703365,49.7896854 Z M84.6424653,9.23372348 L73.9603146,9.23372348 L73.9603146,0.543160205 L104.558339,0.543160205 L104.558339,9.23372348 L93.8761887,9.23372348 L93.8761887,64.9981712 L84.6424653,64.9981712 L84.6424653,9.23372348 Z M108.632041,0.543160205 L136.152158,0.543160205 L136.152158,9.23372348 L117.865764,9.23372348 L117.865764,28.153804 L133.798464,28.153804 L133.798464,36.8443672 L117.865764,36.8443672 L117.865764,55.7644477 L136.152158,55.7644477 L136.152158,64.9981712 L108.632041,64.9981712 L108.632041,0.543160205 Z" id="VOTE"></path>
                    <path d="M3.12728603,76.5855889 L30.6474031,76.5855889 L30.6474031,85.2761522 L12.3610095,85.2761522 L12.3610095,104.82992 L28.2937089,104.82992 L28.2937089,113.520483 L12.3610095,113.520483 L12.3610095,141.0406 L3.12728603,141.0406 L3.12728603,76.5855889 Z M36.0790051,91.7940746 C36.0790051,89.1989629 36.5316341,86.9056427 37.4369056,84.9140454 C38.3421772,82.922448 39.5341001,81.277896 41.0127103,79.9803402 C42.4913205,78.6827843 44.1509601,77.7020882 45.9916789,77.0382224 C47.8323976,76.3743566 49.6881765,76.0424287 51.559071,76.0424287 C53.4299655,76.0424287 55.2857443,76.3743566 57.1264631,77.0382224 C58.9671818,77.7020882 60.6268214,78.6827843 62.1054316,79.9803402 C63.5840418,81.277896 64.7759647,82.922448 65.6812363,84.9140454 C66.5865078,86.9056427 67.0391368,89.1989629 67.0391368,91.7940746 L67.0391368,125.832114 C67.0391368,128.487577 66.5865078,130.795985 65.6812363,132.757407 C64.7759647,134.718828 63.5840418,136.348293 62.1054316,137.645849 C60.6268214,138.943404 58.9671818,139.924101 57.1264631,140.587966 C55.2857443,141.251832 53.4299655,141.58376 51.559071,141.58376 C49.6881765,141.58376 47.8323976,141.251832 45.9916789,140.587966 C44.1509601,139.924101 42.4913205,138.943404 41.0127103,137.645849 C39.5341001,136.348293 38.3421772,134.718828 37.4369056,132.757407 C36.5316341,130.795985 36.0790051,128.487577 36.0790051,125.832114 L36.0790051,91.7940746 Z M45.3127286,125.832114 C45.3127286,128.065117 45.9313215,129.709669 47.168526,130.765819 C48.4057304,131.821969 49.8692308,132.350037 51.559071,132.350037 C53.2489112,132.350037 54.7124115,131.821969 55.9496159,130.765819 C57.1868204,129.709669 57.8054133,128.065117 57.8054133,125.832114 L57.8054133,91.7940746 C57.8054133,89.5610715 57.1868204,87.9165195 55.9496159,86.8603694 C54.7124115,85.8042193 53.2489112,85.2761522 51.559071,85.2761522 C49.8692308,85.2761522 48.4057304,85.8042193 47.168526,86.8603694 C45.9313215,87.9165195 45.3127286,89.5610715 45.3127286,91.7940746 L45.3127286,125.832114 Z M84.4202634,105.37308 L89.670812,105.37308 C91.3003008,105.37308 92.5978372,105.146765 93.5634601,104.694129 C94.5290831,104.241494 95.2683771,103.592726 95.7813643,102.747805 C96.2943515,101.902885 96.6413671,100.861839 96.8224214,99.6246342 C97.0034757,98.3874298 97.0940015,96.9541047 97.0940015,95.3246159 C97.0940015,93.6951272 97.0034757,92.2618021 96.8224214,91.0245977 C96.6413671,89.7873932 96.2641762,88.7312589 95.6908376,87.8561631 C95.117499,86.9810673 94.3178544,86.3322991 93.29188,85.9098391 C92.2659056,85.487379 90.9080187,85.2761522 89.2181785,85.2761522 L84.4202634,85.2761522 L84.4202634,105.37308 Z M75.1865399,76.5855889 L90.0329188,76.5855889 C100.896177,76.5855889 106.327725,82.8922193 106.327725,95.5056693 C106.327725,99.2474584 105.739307,102.461124 104.562454,105.146763 C103.385601,107.832402 101.318596,109.989933 98.3613753,111.619422 L108.319312,141.0406 L98.5424287,141.0406 L89.9423921,113.520483 L84.4202634,113.520483 L84.4202634,141.0406 L75.1865399,141.0406 L75.1865399,76.5855889 Z M152.043709,141.0406 L143.353146,141.0406 L136.292063,99.2172641 L136.11101,99.2172641 L129.140454,141.0406 L120.44989,141.0406 L110.85406,76.5855889 L120.630944,76.5855889 L125.247805,117.503658 L125.428859,117.503658 L132.670995,76.5855889 L139.732078,76.5855889 L147.245794,118.499451 L147.426847,118.499451 L151.862655,76.5855889 L161.639539,76.5855889 L152.043709,141.0406 Z M181.555413,95.1435625 L181.37436,95.1435625 L176.848025,118.499451 L186.081748,118.499451 L181.555413,95.1435625 Z M177.662765,76.5855889 L185.357535,76.5855889 L199.75128,141.0406 L190.517557,141.0406 L187.801756,127.190015 L175.218544,127.190015 L172.502743,141.0406 L163.26902,141.0406 L177.662765,76.5855889 Z M213.511339,105.37308 L218.761887,105.37308 C220.391376,105.37308 221.688913,105.146765 222.654535,104.694129 C223.620158,104.241494 224.359452,103.592726 224.87244,102.747805 C225.385427,101.902885 225.732442,100.861839 225.913497,99.6246342 C226.094551,98.3874298 226.185077,96.9541047 226.185077,95.3246159 C226.185077,93.6951272 226.094551,92.2618021 225.913497,91.0245977 C225.732442,89.7873932 225.355252,88.7312589 224.781913,87.8561631 C224.208574,86.9810673 223.40893,86.3322991 222.382955,85.9098391 C221.356981,85.487379 219.999094,85.2761522 218.309254,85.2761522 L213.511339,85.2761522 L213.511339,105.37308 Z M204.277615,76.5855889 L219.123994,76.5855889 C229.987253,76.5855889 235.4188,82.8922193 235.4188,95.5056693 C235.4188,99.2474584 234.830383,102.461124 233.65353,105.146763 C232.476677,107.832402 230.409671,109.989933 227.452451,111.619422 L237.410388,141.0406 L227.633504,141.0406 L219.033467,113.520483 L213.511339,113.520483 L213.511339,141.0406 L204.277615,141.0406 L204.277615,76.5855889 Z M242.84199,76.5855889 L256.511522,76.5855889 C261.762096,76.5855889 265.775407,78.0490892 268.551573,80.9761339 C271.327739,83.9031785 272.715801,87.9919269 272.715801,93.2425018 L272.715801,123.387893 C272.715801,129.423037 271.252301,133.873888 268.325256,136.740582 C265.398211,139.607275 261.188762,141.0406 255.696781,141.0406 L242.84199,141.0406 L242.84199,76.5855889 Z M252.075713,132.350037 L256.330468,132.350037 C258.92558,132.350037 260.766271,131.701268 261.852597,130.403713 C262.938923,129.106157 263.482078,127.069326 263.482078,124.29316 L263.482078,93.2425018 C263.482078,90.7077415 262.969098,88.7463493 261.943124,87.3582663 C260.917149,85.9701833 259.046283,85.2761522 256.330468,85.2761522 L252.075713,85.2761522 L252.075713,132.350037 Z" id="FORWARD"></path>
                </g>
                <g id="Logo" transform="translate(0.500000, 0.500000)">
                    <path d="M125.429773,141.550841 L117.565838,141.550841 C117.565838,139.379275 115.805436,137.618873 113.63387,137.618873 C111.462304,137.618873 109.701902,139.379275 109.701902,141.550841 L101.837966,141.550841 C101.837966,139.379275 100.077564,137.618873 97.9059985,137.618873 C95.7344327,137.618873 93.9740307,139.379275 93.9740307,141.550841 L86.1100951,141.550841 C86.1100951,139.379275 84.3496931,137.618873 82.1781273,137.618873 C80.0065614,137.618873 78.2461595,139.379275 78.2461595,141.550841 L70.3822238,141.550841 C70.3822238,139.379275 68.6218219,137.618873 66.450256,137.618873 C64.2786902,137.618873 62.5182882,139.379275 62.5182882,141.550841 L42.8584492,141.550841 L42.8584492,121.891002 C45.030015,121.891002 46.790417,120.1306 46.790417,117.959034 C46.790417,115.787469 45.030015,114.027067 42.8584492,114.027067 L42.8584492,106.163131 C45.030015,106.163131 46.790417,104.402729 46.790417,102.231163 C46.790417,100.059597 45.030015,98.2991953 42.8584492,98.2991953 L42.8584492,90.4352597 C45.030015,90.4352597 46.790417,88.6748577 46.790417,86.5032919 C46.790417,84.331726 45.030015,82.5713241 42.8584492,82.5713241 L42.8584492,74.7073884 C45.030015,74.7073884 46.790417,72.9469865 46.790417,70.7754206 C46.790417,68.6038548 45.030015,66.8434528 42.8584492,66.8434528 L42.8584492,58.9795172 C45.030015,58.9795172 46.790417,57.2191152 46.790417,55.0475494 C46.790417,52.8759835 45.030015,51.1155816 42.8584492,51.1155816 L42.8584492,43.2516459 C45.030015,43.2516459 46.790417,41.491244 46.790417,39.3196781 C46.790417,37.1481123 45.030015,35.3877103 42.8584492,35.3877103 L42.8584492,27.5237747 C45.030015,27.5237747 46.790417,25.7633727 46.790417,23.5918069 C46.790417,21.420241 45.030015,19.6598391 42.8584492,19.6598391 L42.8584492,0 L62.5182882,0 C62.5182882,2.17156586 64.2786902,3.93196781 66.450256,3.93196781 C68.6218219,3.93196781 70.3822238,2.17156586 70.3822238,0 L78.2461595,0 C78.2461595,2.17156586 80.0065614,3.93196781 82.1781273,3.93196781 C84.3496931,3.93196781 86.1100951,2.17156586 86.1100951,0 L93.9740307,0 C93.9740307,2.17156586 95.7344327,3.93196781 97.9059985,3.93196781 C100.077564,3.93196781 101.837966,2.17156586 101.837966,0 L109.701902,0 C109.701902,2.17156586 111.462304,3.93196781 113.63387,3.93196781 C115.805436,3.93196781 117.565838,2.17156586 117.565838,0 L125.429773,0 C125.429773,2.17156586 127.190175,3.93196781 129.361741,3.93196781 C131.533307,3.93196781 133.293709,2.17156586 133.293709,0 L152.953548,0 L152.953548,19.6598391 C150.781982,19.6598391 149.02158,21.420241 149.02158,23.5918069 C149.02158,25.7633727 150.781982,27.5237747 152.953548,27.5237747 L152.953548,35.3877103 C150.781982,35.3877103 149.02158,37.1481123 149.02158,39.3196781 C149.02158,41.491244 150.781982,43.2516459 152.953548,43.2516459 L152.953548,51.1155816 C150.781982,51.1155816 149.02158,52.8759835 149.02158,55.0475494 C149.02158,57.2191152 150.781982,58.9795172 152.953548,58.9795172 L152.953548,66.8434528 C150.781982,66.8434528 149.02158,68.6038548 149.02158,70.7754206 C149.02158,72.9469865 150.781982,74.7073884 152.953548,74.7073884 L152.953548,82.5713241 C150.781982,82.5713241 149.02158,84.331726 149.02158,86.5032919 C149.02158,88.6748577 150.781982,90.4352597 152.953548,90.4352597 L152.953548,98.2991953 C150.781982,98.2991953 149.02158,100.059597 149.02158,102.231163 C149.02158,104.402729 150.781982,106.163131 152.953548,106.163131 L152.953548,114.027067 C150.781982,114.027067 149.02158,115.787469 149.02158,117.959034 C149.02158,120.1306 150.781982,121.891002 152.953548,121.891002 L152.953548,141.550841 L133.293709,141.550841 C133.293709,139.379275 131.533307,137.618873 129.361741,137.618873 C127.190175,137.618873 125.429773,139.379275 125.429773,141.550841 Z M55.178615,128.575347 L55.178615,13.4997562 L140.633382,13.4997562 L140.633382,128.575347 L55.178615,128.575347 Z M143.254694,10.8784443 L52.5573031,10.8784443 L52.5573031,131.196659 L143.254694,131.196659 L143.254694,10.8784443 Z" id="Stamp" fill="#AFE5FF"></path>
                    <path d="M0,99.2319595 L0,90.9039396 C0.582199973,90.5855234 1.16227136,90.2871528 1.74033451,90.0088163 C9.46473997,87.1230038 17.1376388,87.0457992 24.6173309,89.7907375 C25.5679434,90.2558587 26.5174518,90.7813086 27.4664924,91.3670265 C29.7621184,92.7838142 32.0904961,93.9241168 34.4475597,94.7886543 C42.1126042,98.5379488 50.0474616,98.4165111 58.5575612,94.3702537 C60.6252823,93.5880496 62.7034371,92.6191319 64.7897308,91.4639068 L64.7525105,91.3912812 C65.6259526,90.8856716 66.4945057,90.4248628 67.3585718,90.0088163 C75.0829791,87.1230035 82.7558781,87.0457994 90.2355703,89.7907383 C91.1861807,90.2558587 92.1356891,90.7813086 93.0847297,91.3670265 C95.3803556,92.7838142 97.7087334,93.9241168 100.065797,94.7886543 C107.730841,98.5379488 115.665699,98.4165111 124.175798,94.3702537 C124.724136,94.1628215 125.273208,93.9422586 125.82297,93.7085725 L125.82297,102.067697 C120.882819,104.686276 116.139634,106.004157 111.53522,106.031642 C111.476488,106.031942 111.417769,106.032082 111.359062,106.032064 C106.534046,106.026361 101.860835,104.60162 97.2723114,101.769729 C91.3754088,98.1303467 85.3250039,96.3136348 79.1944754,96.3125841 C79.1615123,96.3125608 79.128546,96.3126077 79.0955757,96.3127247 C73.0171993,96.3310399 66.8604666,98.1337187 60.6968695,101.713933 L60.7338314,101.782684 C55.6029441,104.590672 50.685542,106.003177 45.9169827,106.031642 C45.8582505,106.031942 45.7995313,106.032082 45.7408249,106.032064 C40.9158085,106.026361 36.2425978,104.60162 31.6540741,101.769729 C25.7571716,98.1303467 19.7067666,96.3136348 13.5762381,96.3125841 C13.5432757,96.3125608 13.5103091,96.3126077 13.4773384,96.3127247 C9.01766014,96.3261625 4.51580198,97.3001398 2.59381762e-10,99.2319596 Z M0,83.7797965 L0,75.4517766 C0.582199973,75.1333604 1.16227136,74.8349898 1.74033451,74.5566533 C9.46473997,71.6708408 17.1376388,71.5936362 24.6173309,74.3385745 C25.5679434,74.8036956 26.5174518,75.3291455 27.4664924,75.9148634 C29.7621184,77.3316512 32.0904961,78.4719538 34.4475597,79.3364913 C42.1126042,83.0857858 50.0474616,82.9643481 58.5575612,78.9180907 C60.6252823,78.1358866 62.7034371,77.1669688 64.7897308,76.0117438 L64.7525105,75.9391182 C65.6259526,75.4335086 66.4945057,74.9726998 67.3585718,74.5566533 C75.0829791,71.6708405 82.7558781,71.5936364 90.2355703,74.3385753 C91.1861807,74.8036956 92.1356891,75.3291455 93.0847297,75.9148634 C95.3803556,77.3316512 97.7087334,78.4719538 100.065797,79.3364913 C107.730841,83.0857858 115.665699,82.9643481 124.175798,78.9180907 C124.724136,78.7106585 125.273208,78.4900955 125.82297,78.2564095 L125.82297,86.6155343 C120.882819,89.2341132 116.139634,90.5519935 111.53522,90.5794788 C111.476488,90.5797788 111.417769,90.5799194 111.359062,90.5799007 C106.534046,90.5741977 101.860835,89.1494574 97.2723114,86.3175656 C91.3754088,82.6781837 85.3250039,80.8614718 79.1944754,80.8604211 C79.1615123,80.8603978 79.128546,80.8604446 79.0955757,80.8605616 C73.0171993,80.8788769 66.8604666,82.6815557 60.6968695,86.2617696 L60.7338314,86.3305208 C55.6029441,89.1385093 50.685542,90.5510137 45.9169827,90.5794788 C45.8582505,90.5797788 45.7995313,90.5799194 45.7408249,90.5799007 C40.9158085,90.5741977 36.2425978,89.1494574 31.6540741,86.3175656 C25.7571716,82.6781837 19.7067666,80.8614718 13.5762381,80.8604211 C13.5432757,80.8603978 13.5103091,80.8604446 13.4773384,80.8605616 C9.01766014,80.8739994 4.51580198,81.8479767 2.59381762e-10,83.7797966 Z M0,59.8018436 C10.7577355,55.1997802 21.4363388,56.0335494 31.6540741,62.3396126 C40.8297733,68.0025642 50.3441211,68.0385634 60.7338303,62.3525657 L60.6968695,62.2838167 C73.1112496,55.0727456 85.4977826,55.0727456 97.2723114,62.3396126 C106.29203,67.9062979 115.638981,68.0357134 125.82297,62.6375798 L125.82297,71.1633713 C120.882819,73.7819502 116.139634,75.0998305 111.53522,75.1273157 C111.476488,75.1276157 111.417769,75.1277564 111.359062,75.1277376 C106.534046,75.1220346 101.860835,73.6972943 97.2723114,70.8654025 C91.3754089,67.2260207 85.3250039,65.4093088 79.1944754,65.4082581 C79.1615123,65.4082348 79.128546,65.4082816 79.0955757,65.4083986 C73.0171993,65.4267138 66.8604666,67.2293927 60.6968695,70.8096066 L60.7338314,70.8783577 C55.6029441,73.6863463 50.685542,75.0988507 45.9169827,75.1273157 C45.8582505,75.1276157 45.7995313,75.1277564 45.7408249,75.1277376 C40.9158085,75.1220346 36.2425978,73.6972943 31.6540741,70.8654025 C25.7571716,67.2260207 19.7067666,65.4093088 13.5762381,65.4082581 C13.5432757,65.4082348 13.5103091,65.4082816 13.4773384,65.4083986 C9.01766014,65.4218364 4.51580198,66.3958137 2.59381762e-10,68.3276336 L0,59.8018436 Z" id="Stamp-Lines" fill="#D12820"></path>
                </g>
            </g>
        </g>
    </g>
</svg>