<?xml version="1.0" standalone="no"?>
<!DOCTYPE svg PUBLIC "-//W3C//DTD SVG 20010904//EN"
 "http://www.w3.org/TR/2001/REC-SVG-20010904/DTD/svg10.dtd">
<svg version="1.0" xmlns="http://www.w3.org/2000/svg"
 width="1167.000000pt" height="1167.000000pt" viewBox="0 0 1167.000000 1167.000000"
 preserveAspectRatio="xMidYMid meet">
<metadata>
Created by potrace 1.11, written by Peter Selinger 2001-2013
</metadata>
<g transform="translate(0.000000,1167.000000) scale(0.100000,-0.100000)"
fill="#000000" stroke="none">
<path d="M3270 10500 c0 -707 1 -750 18 -751 102 -4 210 -80 255 -178 31 -66
30 -189 -2 -250 -46 -88 -133 -152 -229 -167 l-42 -7 0 -298 c0 -278 1 -299
18 -300 102 -4 210 -80 255 -178 31 -67 30 -189 -2 -251 -49 -95 -155 -165
-253 -169 -17 -1 -18 -22 -18 -301 0 -279 1 -300 18 -301 45 -4 61 -7 104 -27
58 -25 124 -91 151 -151 31 -66 30 -189 -1 -249 -51 -97 -155 -167 -254 -171
-17 -1 -18 -22 -18 -286 l0 -285 -22 5 c-13 2 -40 7 -60 10 -21 2 -59 10 -85
16 -27 6 -59 13 -73 15 -42 8 -220 70 -310 108 -83 35 -180 87 -370 197 -201
117 -351 186 -555 254 -75 25 -237 69 -295 79 -19 3 -46 8 -60 11 -14 3 -41 7
-60 10 -19 2 -60 8 -90 12 -115 16 -497 8 -601 -12 -13 -3 -64 -12 -114 -20
-49 -8 -115 -22 -145 -31 -113 -32 -258 -79 -340 -110 l-85 -32 -3 -326 c-1
-179 0 -326 3 -326 3 0 31 11 63 24 202 84 466 152 717 183 79 9 433 9 510 -1
254 -32 480 -93 715 -193 142 -61 211 -96 386 -199 82 -48 199 -111 259 -140
98 -46 280 -116 338 -129 12 -2 54 -12 92 -20 39 -9 86 -18 105 -22 19 -3 42
-7 50 -8 8 -2 18 -4 23 -4 4 -1 7 -121 7 -267 0 -248 -1 -265 -17 -260 -10 2
-38 7 -63 11 -61 9 -226 50 -303 76 -63 21 -338 134 -412 169 -22 10 -71 33
-110 51 -38 18 -108 55 -154 81 -46 26 -86 48 -89 48 -3 0 -13 6 -21 14 -16
13 -143 84 -212 117 -77 38 -351 111 -499 134 -183 27 -543 28 -700 1 -14 -3
-42 -7 -62 -10 -166 -25 -409 -96 -540 -159 l-88 -42 0 -318 c0 -300 1 -319
18 -312 49 21 281 105 303 109 13 3 67 17 119 31 52 13 111 27 130 30 19 3 60
10 90 15 122 21 183 25 370 25 172 0 303 -8 350 -20 8 -2 35 -7 60 -10 72 -10
237 -51 342 -85 197 -63 390 -153 613 -285 135 -80 363 -195 387 -195 8 0 18
-4 23 -9 24 -22 293 -95 395 -107 30 -3 58 -8 63 -11 4 -2 7 -121 7 -263 0
-142 -3 -261 -7 -263 -11 -6 -213 35 -309 64 -43 12 -119 39 -169 60 -376 154
-456 192 -700 334 -186 108 -203 116 -350 161 -161 50 -339 84 -525 99 -59 5
-292 5 -350 0 -99 -8 -166 -16 -243 -30 -209 -37 -383 -89 -529 -157 l-88 -41
0 -319 c0 -175 2 -318 4 -318 2 0 26 10 53 21 183 80 451 151 695 183 113 15
428 19 523 6 33 -5 83 -11 110 -15 154 -19 450 -103 617 -175 103 -45 271
-130 364 -186 121 -72 143 -84 229 -129 221 -115 511 -202 720 -215 l40 -2
-42 -11 -43 -10 0 -298 c0 -278 1 -299 18 -300 119 -5 234 -97 268 -217 50
-173 -63 -349 -244 -378 l-42 -7 0 -748 0 -749 748 0 748 0 12 58 c51 246 369
325 523 129 36 -45 69 -126 69 -169 0 -17 17 -18 300 -18 283 0 300 1 300 18
0 43 33 124 70 170 108 137 314 147 439 22 50 -50 91 -134 91 -185 l0 -25 299
0 298 0 7 42 c24 146 139 249 286 254 128 5 245 -72 289 -191 12 -30 20 -59
20 -63 -7 -43 -17 -42 300 -42 l298 0 7 42 c17 105 94 201 189 237 119 45 260
7 337 -91 37 -46 70 -127 70 -170 0 -17 17 -18 299 -18 l298 0 7 42 c11 67 42
125 91 173 120 115 303 109 422 -12 42 -44 83 -131 83 -178 l0 -25 750 0 750
0 0 750 c0 707 -1 750 -17 751 -78 3 -162 47 -213 111 -100 127 -89 297 28
405 45 43 132 83 177 83 l25 0 0 300 c0 279 -1 300 -17 301 -46 4 -62 7 -105
27 -58 26 -124 91 -151 151 -31 66 -30 179 1 244 47 99 153 172 255 176 16 1
17 22 17 299 l0 298 -58 12 c-137 28 -242 155 -242 292 0 152 133 293 283 299
16 1 17 22 17 301 0 279 -1 300 -17 301 -119 5 -235 99 -269 217 -53 181 83
373 269 381 16 1 17 22 17 300 l0 298 -42 7 c-145 23 -248 140 -254 285 -5
118 56 222 160 275 52 26 68 31 119 35 16 1 17 22 17 299 l0 298 -58 12 c-110
23 -197 104 -228 211 -54 183 81 370 274 380 9 1 12 68 12 301 0 279 -1 300
-17 301 -78 3 -162 47 -213 111 -100 127 -89 297 28 405 45 43 132 83 177 83
l25 0 0 750 0 750 -750 0 c-707 0 -750 -1 -751 -17 -3 -70 -37 -142 -94 -197
-172 -168 -462 -68 -501 172 l-7 42 -296 0 -297 0 -12 -58 c-30 -145 -153
-243 -298 -238 -86 3 -148 30 -204 87 -51 53 -76 100 -85 162 l-7 47 -298 0
-297 0 -7 -42 c-10 -64 -40 -122 -85 -167 -58 -58 -113 -83 -191 -87 -154 -7
-281 89 -312 238 l-12 58 -298 0 c-277 0 -298 -1 -299 -17 -3 -70 -37 -142
-94 -197 -116 -113 -302 -111 -415 5 -51 53 -76 100 -85 162 l-7 47 -298 0
-297 0 -7 -42 c-16 -96 -79 -183 -168 -230 -60 -31 -183 -32 -250 -1 -88 40
-158 134 -174 231 l-7 42 -748 0 -749 0 0 -750z m7660 -4670 l0 -4590 -3460 0
-3460 0 0 994 0 994 88 27 c48 15 93 30 100 32 9 4 12 -184 12 -921 l0 -926
3260 0 3260 0 0 4390 0 4390 -3260 0 -3260 0 -2 -1961 -3 -1961 -85 -29 c-47
-15 -91 -28 -97 -28 -10 -1 -13 423 -13 2089 l0 2090 3460 0 3460 0 0 -4590z
m-6720 -445 l0 -264 -95 -31 c-52 -16 -97 -30 -100 -30 -3 0 -5 119 -5 265 l0
264 43 11 c23 7 67 20 97 30 30 10 56 19 58 19 1 1 2 -118 2 -264z m0 -1180
l0 -264 -82 -26 c-46 -14 -91 -28 -100 -31 -17 -5 -18 12 -18 260 l0 265 43
11 c23 6 65 20 92 30 28 10 53 18 58 19 4 1 7 -118 7 -264z"/>
</g>
</svg>
