<?xml version="1.0" encoding="UTF-8"?>
<svg width="2734px" height="860px" viewBox="0 0 2734 860" version="1.1" xmlns="http://www.w3.org/2000/svg" xmlns:xlink="http://www.w3.org/1999/xlink">
    <!-- Generator: Sketch 50.2 (55047) - http://www.bohemiancoding.com/sketch -->
    <title>Logo</title>
    <desc>Created with Sketch.</desc>
    <defs></defs>
    <g id="Logo" stroke="none" stroke-width="1" fill="none" fill-rule="evenodd">
        <path d="M335.240741,392.163692 C329.896891,394.080313 324.588969,395.733587 319.314815,397.123895 L319.314815,64.0925926 L870.351852,64.0925926 L870.351852,795.092593 L319.314815,795.092593 L319.314815,682.868941 C305.652869,686.470335 292.217503,688.307244 277.900923,688.388879 C272.027647,688.381937 266.191394,688.028919 260.388889,687.330407 L260.388889,690.777778 C273.582358,690.777778 284.277778,701.473198 284.277778,714.666667 C284.277778,727.860136 273.582358,738.555556 260.388889,738.555556 L260.388889,858 L379.833333,858 C379.833333,844.806531 390.528753,834.111111 403.722222,834.111111 C416.915691,834.111111 427.611111,844.806531 427.611111,858 L475.388889,858 C475.388889,844.806531 486.084309,834.111111 499.277778,834.111111 C512.471247,834.111111 523.166667,844.806531 523.166667,858 L570.944444,858 C570.944444,844.806531 581.639864,834.111111 594.833333,834.111111 C608.026802,834.111111 618.722222,844.806531 618.722222,858 L666.5,858 C666.5,844.806531 677.19542,834.111111 690.388889,834.111111 C703.582358,834.111111 714.277778,844.806531 714.277778,858 L762.055556,858 C762.055556,844.806531 772.750975,834.111111 785.944444,834.111111 C799.137913,834.111111 809.833333,844.806531 809.833333,858 L929.277778,858 L929.277778,738.555556 C916.084309,738.555556 905.388889,727.860136 905.388889,714.666667 C905.388889,701.473198 916.084309,690.777778 929.277778,690.777778 L929.277778,643 C916.084309,643 905.388889,632.30458 905.388889,619.111111 C905.388889,605.917642 916.084309,595.222222 929.277778,595.222222 L929.277778,547.444444 C916.084309,547.444444 905.388889,536.749025 905.388889,523.555556 C905.388889,510.362087 916.084309,499.666667 929.277778,499.666667 L929.277778,451.888889 C916.084309,451.888889 905.388889,441.193469 905.388889,428 C905.388889,414.806531 916.084309,404.111111 929.277778,404.111111 L929.277778,356.333333 C916.084309,356.333333 905.388889,345.637913 905.388889,332.444444 C905.388889,319.250975 916.084309,308.555556 929.277778,308.555556 L929.277778,260.777778 C916.084309,260.777778 905.388889,250.082358 905.388889,236.888889 C905.388889,223.69542 916.084309,213 929.277778,213 L929.277778,165.222222 C916.084309,165.222222 905.388889,154.526802 905.388889,141.333333 C905.388889,128.139864 916.084309,117.444444 929.277778,117.444444 L929.277778,-2 L809.833333,-2 C809.833333,11.193469 799.137913,21.8888889 785.944444,21.8888889 C772.750975,21.8888889 762.055556,11.193469 762.055556,-2 L714.277778,-2 C714.277778,11.193469 703.582358,21.8888889 690.388889,21.8888889 C677.19542,21.8888889 666.5,11.193469 666.5,-2 L618.722222,-2 C618.722222,11.193469 608.026802,21.8888889 594.833333,21.8888889 C581.639864,21.8888889 570.944444,11.193469 570.944444,-2 L523.166667,-2 C523.166667,11.193469 512.471247,21.8888889 499.277778,21.8888889 C486.084309,21.8888889 475.388889,11.193469 475.388889,-2 L427.611111,-2 C427.611111,11.193469 416.915691,21.8888889 403.722222,21.8888889 C390.528753,21.8888889 379.833333,11.193469 379.833333,-2 L260.388889,-2 L260.388889,117.444444 C273.582358,117.444444 284.277778,128.139864 284.277778,141.333333 C284.277778,154.526802 273.582358,165.222222 260.388889,165.222222 L260.388889,213 C273.582358,213 284.277778,223.69542 284.277778,236.888889 C284.277778,250.082358 273.582358,260.777778 260.388889,260.777778 L260.388889,308.555556 C273.582358,308.555556 284.277778,319.250975 284.277778,332.444444 C284.277778,345.637913 273.582358,356.333333 260.388889,356.333333 L260.388889,401.585362 C237.229946,398.797464 214.608514,390.505962 192.316086,376.74778 C130.237667,338.434942 65.3592199,333.369331 0,361.329423 L1.57591852e-09,413.128334 C27.4360058,401.391455 54.7872952,395.474002 82.4831889,395.391506 C119.729555,395.397889 156.489127,406.435423 192.316086,428.54669 C220.193916,445.752006 248.586268,454.408095 278.971179,454.44018 C307.942826,454.267239 337.818776,445.685491 368.767203,428.207699 C406.214479,406.45591 443.620051,395.503635 481.150435,395.391506 C518.396802,395.397889 555.156373,406.435423 590.983332,428.54669 C618.861162,445.752006 647.253514,454.408095 677.638426,454.44018 C705.612796,454.273192 734.430283,446.266338 764.444444,430.357016 L764.444444,472.841597 C760.959658,474.513459 756.743215,476.598805 754.436962,477.471244 C702.73338,502.054506 654.524712,502.792308 607.955309,480.01326 C593.634838,474.760715 579.48865,467.832743 565.541447,459.22497 C559.775498,455.666409 554.006707,452.474009 548.23122,449.648144 C502.787935,432.971115 456.170811,433.440173 409.240745,450.973089 C403.991063,453.500802 398.714121,456.300472 393.633609,459.813572 C380.958216,466.832206 368.332271,472.71892 355.769716,477.471244 C304.066133,502.054506 255.857466,502.792308 209.288063,480.01326 C194.967592,474.760715 180.821403,467.832743 166.874201,459.22497 C161.108252,455.666409 155.339461,452.474009 149.563961,449.648139 C104.120676,432.971114 57.5035535,433.440175 10.573499,450.973089 C7.06144419,452.664138 3.53718828,454.476905 0,456.41146 L1.57591852e-09,507.008809 C27.4360058,495.27193 54.7872952,489.354477 82.4831889,489.271981 C119.729555,489.278364 156.489127,500.315898 192.316086,522.427165 C220.193916,539.632481 248.586268,548.28857 278.971179,548.320655 C307.942826,548.147714 337.818776,539.565966 368.767203,522.088174 C406.214479,500.336385 443.620051,489.38411 481.150435,489.271981 C518.396802,489.278364 555.156373,500.315898 590.983332,522.427165 C618.861162,539.632481 647.253514,548.28857 677.638426,548.320655 C705.612796,548.153667 734.430284,540.146812 764.444444,524.235851 L764.444444,570.422676 L764.444444,567.331638 C761.104332,568.751411 757.768418,570.091453 754.436962,571.351719 C702.73338,595.934981 654.524712,596.672783 607.955309,573.893735 C593.634838,568.64119 579.48865,561.713218 565.541447,553.105445 C559.775498,549.546884 554.006707,546.354484 548.23122,543.528619 C502.787935,526.85159 456.170811,527.320648 409.240745,544.853564 C403.991063,547.381277 398.714121,550.180947 393.633609,553.694047 C380.958216,560.712681 368.332271,566.599395 355.769716,571.351719 C304.066133,595.934981 255.857466,596.672783 209.288063,573.893735 C194.967592,568.64119 180.821403,561.713218 166.874201,553.105445 C161.108252,549.546884 155.339461,546.354484 149.563961,543.528614 C104.120676,526.851589 57.5035535,527.32065 10.573499,544.853564 C7.06144419,546.544613 3.53718828,548.35738 0,550.291935 L1.57591852e-09,600.889284 C27.4360058,589.152405 54.7872952,583.234951 82.4831889,583.152456 C119.729555,583.158839 156.489127,594.196373 192.316086,616.30764 C220.193916,633.512956 248.586268,642.169045 278.971179,642.20113 C307.942826,642.028189 337.818776,633.446441 368.767203,615.968649 C406.214479,594.21686 443.620051,583.264585 481.150435,583.152456 C518.396802,583.158839 555.156373,594.196373 590.983332,616.30764 C618.861162,633.512956 647.253514,642.169045 677.638426,642.20113 C705.612796,642.034142 734.430284,634.027287 764.444444,618.117966 L764.444444,615.817394 L764.444444,664.303151 C734.430284,680.212473 705.612796,688.219328 676.568169,688.388879 C647.253514,688.35423 618.861162,679.698141 590.983332,662.492825 C555.156373,640.381558 518.396802,629.344024 480.549564,629.338495 C443.620051,629.44977 406.214479,640.402045 368.991767,662.571535 C357.573849,668.820237 346.32994,673.9315 335.240741,677.908742 L335.240741,779.166667 L854.425926,779.166667 L854.425926,80.0185185 L335.240741,80.0185185 L335.240741,392.163692 Z" fill="#000000"></path>
        <path d="M1208.25,392.9 L1158.75,392.9 L1079,1.3 L1138.4,1.3 L1182.95,274.65 L1184.05,274.65 L1229.15,1.3 L1288.55,1.3 L1208.25,392.9 Z M1318.8,93.7 C1318.8,77.9332545 1321.54997,64.0000605 1327.05,51.9 C1332.55003,39.7999395 1339.79162,29.8083727 1348.775,21.925 C1357.75838,14.0416273 1367.84161,8.0833535 1379.025,4.05 C1390.20839,0.0166465 1401.48328,-2 1412.85,-2 C1424.21672,-2 1435.49161,0.0166465 1446.675,4.05 C1457.85839,8.0833535 1467.94162,14.0416273 1476.925,21.925 C1485.90838,29.8083727 1493.14997,39.7999395 1498.65,51.9 C1504.15003,64.0000605 1506.9,77.9332545 1506.9,93.7 L1506.9,300.5 C1506.9,316.633414 1504.15003,330.658274 1498.65,342.575 C1493.14997,354.491726 1485.90838,364.391627 1476.925,372.275 C1467.94162,380.158373 1457.85839,386.116647 1446.675,390.15 C1435.49161,394.183354 1424.21672,396.2 1412.85,396.2 C1401.48328,396.2 1390.20839,394.183354 1379.025,390.15 C1367.84161,386.116647 1357.75838,380.158373 1348.775,372.275 C1339.79162,364.391627 1332.55003,354.491726 1327.05,342.575 C1321.54997,330.658274 1318.8,316.633414 1318.8,300.5 L1318.8,93.7 Z M1374.9,300.5 C1374.9,314.066735 1378.6583,324.058301 1386.175,330.475 C1393.6917,336.891699 1402.58328,340.1 1412.85,340.1 C1423.11672,340.1 1432.0083,336.891699 1439.525,330.475 C1447.0417,324.058301 1450.8,314.066735 1450.8,300.5 L1450.8,93.7 C1450.8,80.1332655 1447.0417,70.1416988 1439.525,63.725 C1432.0083,57.3083013 1423.11672,54.1 1412.85,54.1 C1402.58328,54.1 1393.6917,57.3083013 1386.175,63.725 C1378.6583,70.1416988 1374.9,80.1332655 1374.9,93.7 L1374.9,300.5 Z M1593.25,54.1 L1528.35,54.1 L1528.35,1.3 L1714.25,1.3 L1714.25,54.1 L1649.35,54.1 L1649.35,392.9 L1593.25,392.9 L1593.25,54.1 Z M1739,1.3 L1906.2,1.3 L1906.2,54.1 L1795.1,54.1 L1795.1,169.05 L1891.9,169.05 L1891.9,221.85 L1795.1,221.85 L1795.1,336.8 L1906.2,336.8 L1906.2,392.9 L1739,392.9 L1739,1.3 Z" id="VOTE" fill="#000000"></path>
        <path d="M1094,465.3 L1261.2,465.3 L1261.2,518.1 L1150.1,518.1 L1150.1,636.9 L1246.9,636.9 L1246.9,689.7 L1150.1,689.7 L1150.1,856.9 L1094,856.9 L1094,465.3 Z M1294.2,557.7 C1294.2,541.933255 1296.94997,528.000061 1302.45,515.9 C1307.95003,503.79994 1315.19162,493.808373 1324.175,485.925 C1333.15838,478.041627 1343.24161,472.083354 1354.425,468.05 C1365.60839,464.016646 1376.88328,462 1388.25,462 C1399.61672,462 1410.89161,464.016646 1422.075,468.05 C1433.25839,472.083354 1443.34162,478.041627 1452.325,485.925 C1461.30838,493.808373 1468.54997,503.79994 1474.05,515.9 C1479.55003,528.000061 1482.3,541.933255 1482.3,557.7 L1482.3,764.5 C1482.3,780.633414 1479.55003,794.658274 1474.05,806.575 C1468.54997,818.491726 1461.30838,828.391627 1452.325,836.275 C1443.34162,844.158373 1433.25839,850.116647 1422.075,854.15 C1410.89161,858.183354 1399.61672,860.2 1388.25,860.2 C1376.88328,860.2 1365.60839,858.183354 1354.425,854.15 C1343.24161,850.116647 1333.15838,844.158373 1324.175,836.275 C1315.19162,828.391627 1307.95003,818.491726 1302.45,806.575 C1296.94997,794.658274 1294.2,780.633414 1294.2,764.5 L1294.2,557.7 Z M1350.3,764.5 C1350.3,778.066735 1354.0583,788.058301 1361.575,794.475 C1369.0917,800.891699 1377.98328,804.1 1388.25,804.1 C1398.51672,804.1 1407.4083,800.891699 1414.925,794.475 C1422.4417,788.058301 1426.2,778.066735 1426.2,764.5 L1426.2,557.7 C1426.2,544.133266 1422.4417,534.141699 1414.925,527.725 C1407.4083,521.308301 1398.51672,518.1 1388.25,518.1 C1377.98328,518.1 1369.0917,521.308301 1361.575,527.725 C1354.0583,534.141699 1350.3,544.133266 1350.3,557.7 L1350.3,764.5 Z M1587.9,640.2 L1619.8,640.2 C1629.70005,640.2 1637.5833,638.825014 1643.45,636.075 C1649.3167,633.324986 1653.80832,629.383359 1656.925,624.25 C1660.04168,619.116641 1662.14999,612.791704 1663.25,605.275 C1664.35001,597.758296 1664.9,589.05005 1664.9,579.15 C1664.9,569.249951 1664.35001,560.541704 1663.25,553.025 C1662.14999,545.508296 1659.85835,539.091693 1656.375,533.775 C1652.89165,528.458307 1648.03336,524.51668 1641.8,521.95 C1635.56664,519.383321 1627.31672,518.1 1617.05,518.1 L1587.9,518.1 L1587.9,640.2 Z M1531.8,465.3 L1622,465.3 C1688.00033,465.3 1721,503.616284 1721,580.25 C1721,602.983447 1717.42504,622.508252 1710.275,638.825 C1703.12496,655.141748 1690.56676,668.249951 1672.6,678.15 L1733.1,856.9 L1673.7,856.9 L1621.45,689.7 L1587.9,689.7 L1587.9,856.9 L1531.8,856.9 L1531.8,465.3 Z M1998.75,856.9 L1945.95,856.9 L1903.05,602.8 L1901.95,602.8 L1859.6,856.9 L1806.8,856.9 L1748.5,465.3 L1807.9,465.3 L1835.95,713.9 L1837.05,713.9 L1881.05,465.3 L1923.95,465.3 L1969.6,719.95 L1970.7,719.95 L1997.65,465.3 L2057.05,465.3 L1998.75,856.9 Z M2178.05,578.05 L2176.95,578.05 L2149.45,719.95 L2205.55,719.95 L2178.05,578.05 Z M2154.4,465.3 L2201.15,465.3 L2288.6,856.9 L2232.5,856.9 L2216,772.75 L2139.55,772.75 L2123.05,856.9 L2066.95,856.9 L2154.4,465.3 Z M2372.2,640.2 L2404.1,640.2 C2414.00005,640.2 2421.8833,638.825014 2427.75,636.075 C2433.6167,633.324986 2438.10832,629.383359 2441.225,624.25 C2444.34168,619.116641 2446.44999,612.791704 2447.55,605.275 C2448.65001,597.758296 2449.2,589.05005 2449.2,579.15 C2449.2,569.249951 2448.65001,560.541704 2447.55,553.025 C2446.44999,545.508296 2444.15835,539.091693 2440.675,533.775 C2437.19165,528.458307 2432.33336,524.51668 2426.1,521.95 C2419.86664,519.383321 2411.61672,518.1 2401.35,518.1 L2372.2,518.1 L2372.2,640.2 Z M2316.1,465.3 L2406.3,465.3 C2472.30033,465.3 2505.3,503.616284 2505.3,580.25 C2505.3,602.983447 2501.72504,622.508252 2494.575,638.825 C2487.42496,655.141748 2474.86676,668.249951 2456.9,678.15 L2517.4,856.9 L2458,856.9 L2405.75,689.7 L2372.2,689.7 L2372.2,856.9 L2316.1,856.9 L2316.1,465.3 Z M2550.4,465.3 L2633.45,465.3 C2665.35016,465.3 2689.73325,474.191578 2706.6,491.975 C2723.46675,509.758422 2731.9,534.599841 2731.9,566.5 L2731.9,749.65 C2731.9,786.31685 2723.00842,813.358246 2705.225,830.775 C2687.44158,848.191754 2661.86683,856.9 2628.5,856.9 L2550.4,856.9 L2550.4,465.3 Z M2606.5,804.1 L2632.35,804.1 C2648.11675,804.1 2659.29997,800.158373 2665.9,792.275 C2672.50003,784.391627 2675.8,772.016751 2675.8,755.15 L2675.8,566.5 C2675.8,551.099923 2672.68336,539.183376 2666.45,530.75 C2660.21664,522.316624 2648.85008,518.1 2632.35,518.1 L2606.5,518.1 L2606.5,804.1 Z" id="FORWARD" fill="#000000"></path>
    </g>
</svg>