<?xml version="1.0" encoding="UTF-8"?>
<svg width="2734px" height="861px" viewBox="0 0 2734 861" version="1.1" xmlns="http://www.w3.org/2000/svg" xmlns:xlink="http://www.w3.org/1999/xlink">
    <!-- Generator: Sketch 50.2 (55047) - http://www.bohemiancoding.com/sketch -->
    <title>vote-forward-logo</title>
    <desc>Created with Sketch.</desc>
    <defs></defs>
    <g id="Page-1" stroke="none" stroke-width="1" fill="none" fill-rule="evenodd">
        <g id="Color-w/-Text" transform="translate(-1103.000000, -145.000000)">
            <g id="vote-forward-logo" transform="translate(1103.000000, 145.000000)">
                <g id="VOTE-FORWARD" transform="translate(1077.000000, 0.000000)" fill="#15466D">
                    <path d="M129.25,394.9 L79.75,394.9 L0,3.3 L59.4,3.3 L103.95,276.65 L105.05,276.65 L150.15,3.3 L209.55,3.3 L129.25,394.9 Z M239.8,95.7 C239.8,79.9332545 242.549972,66.0000605 248.05,53.9 C253.550027,41.7999395 260.791622,31.8083727 269.775,23.925 C278.758378,16.0416273 288.841611,10.0833535 300.025,6.05 C311.208389,2.0166465 322.483277,0 333.85,0 C345.216724,0 356.491611,2.0166465 367.675,6.05 C378.858389,10.0833535 388.941622,16.0416273 397.925,23.925 C406.908378,31.8083727 414.149972,41.7999395 419.65,53.9 C425.150027,66.0000605 427.9,79.9332545 427.9,95.7 L427.9,302.5 C427.9,318.633414 425.150027,332.658274 419.65,344.575 C414.149972,356.491726 406.908378,366.391627 397.925,374.275 C388.941622,382.158373 378.858389,388.116647 367.675,392.15 C356.491611,396.183354 345.216724,398.2 333.85,398.2 C322.483277,398.2 311.208389,396.183354 300.025,392.15 C288.841611,388.116647 278.758378,382.158373 269.775,374.275 C260.791622,366.391627 253.550027,356.491726 248.05,344.575 C242.549972,332.658274 239.8,318.633414 239.8,302.5 L239.8,95.7 Z M295.9,302.5 C295.9,316.066735 299.658296,326.058301 307.175,332.475 C314.691704,338.891699 323.583282,342.1 333.85,342.1 C344.116718,342.1 353.008296,338.891699 360.525,332.475 C368.041704,326.058301 371.8,316.066735 371.8,302.5 L371.8,95.7 C371.8,82.1332655 368.041704,72.1416988 360.525,65.725 C353.008296,59.3083013 344.116718,56.1 333.85,56.1 C323.583282,56.1 314.691704,59.3083013 307.175,65.725 C299.658296,72.1416988 295.9,82.1332655 295.9,95.7 L295.9,302.5 Z M514.25,56.1 L449.35,56.1 L449.35,3.3 L635.25,3.3 L635.25,56.1 L570.35,56.1 L570.35,394.9 L514.25,394.9 L514.25,56.1 Z M660,3.3 L827.2,3.3 L827.2,56.1 L716.1,56.1 L716.1,171.05 L812.9,171.05 L812.9,223.85 L716.1,223.85 L716.1,338.8 L827.2,338.8 L827.2,394.9 L660,394.9 L660,3.3 Z" id="VOTE"></path>
                    <path d="M19,465.3 L186.2,465.3 L186.2,518.1 L75.1,518.1 L75.1,636.9 L171.9,636.9 L171.9,689.7 L75.1,689.7 L75.1,856.9 L19,856.9 L19,465.3 Z M219.2,557.7 C219.2,541.933255 221.949973,528.000061 227.45,515.9 C232.950028,503.79994 240.191622,493.808373 249.175,485.925 C258.158378,478.041627 268.241611,472.083354 279.425,468.05 C290.608389,464.016646 301.883277,462 313.25,462 C324.616723,462 335.891611,464.016646 347.075,468.05 C358.258389,472.083354 368.341622,478.041627 377.325,485.925 C386.308378,493.808373 393.549972,503.79994 399.05,515.9 C404.550027,528.000061 407.3,541.933255 407.3,557.7 L407.3,764.5 C407.3,780.633414 404.550027,794.658274 399.05,806.575 C393.549972,818.491726 386.308378,828.391627 377.325,836.275 C368.341622,844.158373 358.258389,850.116647 347.075,854.15 C335.891611,858.183354 324.616723,860.2 313.25,860.2 C301.883277,860.2 290.608389,858.183354 279.425,854.15 C268.241611,850.116647 258.158378,844.158373 249.175,836.275 C240.191622,828.391627 232.950028,818.491726 227.45,806.575 C221.949973,794.658274 219.2,780.633414 219.2,764.5 L219.2,557.7 Z M275.3,764.5 C275.3,778.066735 279.058296,788.058301 286.575,794.475 C294.091704,800.891699 302.983282,804.1 313.25,804.1 C323.516718,804.1 332.408296,800.891699 339.925,794.475 C347.441704,788.058301 351.2,778.066735 351.2,764.5 L351.2,557.7 C351.2,544.133266 347.441704,534.141699 339.925,527.725 C332.408296,521.308301 323.516718,518.1 313.25,518.1 C302.983282,518.1 294.091704,521.308301 286.575,527.725 C279.058296,534.141699 275.3,544.133266 275.3,557.7 L275.3,764.5 Z M512.9,640.2 L544.8,640.2 C554.700049,640.2 562.583304,638.825014 568.45,636.075 C574.316696,633.324986 578.808318,629.383359 581.925,624.25 C585.041682,619.116641 587.149995,612.791704 588.25,605.275 C589.350005,597.758296 589.9,589.05005 589.9,579.15 C589.9,569.249951 589.350005,560.541704 588.25,553.025 C587.149995,545.508296 584.858351,539.091693 581.375,533.775 C577.891649,528.458307 573.033365,524.51668 566.8,521.95 C560.566635,519.383321 552.316718,518.1 542.05,518.1 L512.9,518.1 L512.9,640.2 Z M456.8,465.3 L547,465.3 C613.00033,465.3 646,503.616284 646,580.25 C646,602.983447 642.425036,622.508252 635.275,638.825 C628.124964,655.141748 615.566756,668.249951 597.6,678.15 L658.1,856.9 L598.7,856.9 L546.45,689.7 L512.9,689.7 L512.9,856.9 L456.8,856.9 L456.8,465.3 Z M923.75,856.9 L870.95,856.9 L828.05,602.8 L826.95,602.8 L784.6,856.9 L731.8,856.9 L673.5,465.3 L732.9,465.3 L760.95,713.9 L762.05,713.9 L806.05,465.3 L848.95,465.3 L894.6,719.95 L895.7,719.95 L922.65,465.3 L982.05,465.3 L923.75,856.9 Z M1103.05,578.05 L1101.95,578.05 L1074.45,719.95 L1130.55,719.95 L1103.05,578.05 Z M1079.4,465.3 L1126.15,465.3 L1213.6,856.9 L1157.5,856.9 L1141,772.75 L1064.55,772.75 L1048.05,856.9 L991.95,856.9 L1079.4,465.3 Z M1297.2,640.2 L1329.1,640.2 C1339.00005,640.2 1346.8833,638.825014 1352.75,636.075 C1358.6167,633.324986 1363.10832,629.383359 1366.225,624.25 C1369.34168,619.116641 1371.44999,612.791704 1372.55,605.275 C1373.65001,597.758296 1374.2,589.05005 1374.2,579.15 C1374.2,569.249951 1373.65001,560.541704 1372.55,553.025 C1371.44999,545.508296 1369.15835,539.091693 1365.675,533.775 C1362.19165,528.458307 1357.33336,524.51668 1351.1,521.95 C1344.86664,519.383321 1336.61672,518.1 1326.35,518.1 L1297.2,518.1 L1297.2,640.2 Z M1241.1,465.3 L1331.3,465.3 C1397.30033,465.3 1430.3,503.616284 1430.3,580.25 C1430.3,602.983447 1426.72504,622.508252 1419.575,638.825 C1412.42496,655.141748 1399.86676,668.249951 1381.9,678.15 L1442.4,856.9 L1383,856.9 L1330.75,689.7 L1297.2,689.7 L1297.2,856.9 L1241.1,856.9 L1241.1,465.3 Z M1475.4,465.3 L1558.45,465.3 C1590.35016,465.3 1614.73325,474.191578 1631.6,491.975 C1648.46675,509.758422 1656.9,534.599841 1656.9,566.5 L1656.9,749.65 C1656.9,786.31685 1648.00842,813.358246 1630.225,830.775 C1612.44158,848.191754 1586.86683,856.9 1553.5,856.9 L1475.4,856.9 L1475.4,465.3 Z M1531.5,804.1 L1557.35,804.1 C1573.11675,804.1 1584.29997,800.158373 1590.9,792.275 C1597.50003,784.391627 1600.8,772.016751 1600.8,755.15 L1600.8,566.5 C1600.8,551.099923 1597.68336,539.183376 1591.45,530.75 C1585.21664,522.316624 1573.85008,518.1 1557.35,518.1 L1531.5,518.1 L1531.5,804.1 Z" id="FORWARD"></path>
                </g>
                <g id="Logo">
                    <path d="M762.055556,860 L714.277778,860 C714.277778,846.806531 703.582358,836.111111 690.388889,836.111111 C677.19542,836.111111 666.5,846.806531 666.5,860 L618.722222,860 C618.722222,846.806531 608.026802,836.111111 594.833333,836.111111 C581.639864,836.111111 570.944444,846.806531 570.944444,860 L523.166667,860 C523.166667,846.806531 512.471247,836.111111 499.277778,836.111111 C486.084309,836.111111 475.388889,846.806531 475.388889,860 L427.611111,860 C427.611111,846.806531 416.915691,836.111111 403.722222,836.111111 C390.528753,836.111111 379.833333,846.806531 379.833333,860 L260.388889,860 L260.388889,740.555556 C273.582358,740.555556 284.277778,729.860136 284.277778,716.666667 C284.277778,703.473198 273.582358,692.777778 260.388889,692.777778 L260.388889,645 C273.582358,645 284.277778,634.30458 284.277778,621.111111 C284.277778,607.917642 273.582358,597.222222 260.388889,597.222222 L260.388889,549.444444 C273.582358,549.444444 284.277778,538.749025 284.277778,525.555556 C284.277778,512.362087 273.582358,501.666667 260.388889,501.666667 L260.388889,453.888889 C273.582358,453.888889 284.277778,443.193469 284.277778,430 C284.277778,416.806531 273.582358,406.111111 260.388889,406.111111 L260.388889,358.333333 C273.582358,358.333333 284.277778,347.637913 284.277778,334.444444 C284.277778,321.250975 273.582358,310.555556 260.388889,310.555556 L260.388889,262.777778 C273.582358,262.777778 284.277778,252.082358 284.277778,238.888889 C284.277778,225.69542 273.582358,215 260.388889,215 L260.388889,167.222222 C273.582358,167.222222 284.277778,156.526802 284.277778,143.333333 C284.277778,130.139864 273.582358,119.444444 260.388889,119.444444 L260.388889,0 L379.833333,0 C379.833333,13.193469 390.528753,23.8888889 403.722222,23.8888889 C416.915691,23.8888889 427.611111,13.193469 427.611111,0 L475.388889,0 C475.388889,13.193469 486.084309,23.8888889 499.277778,23.8888889 C512.471247,23.8888889 523.166667,13.193469 523.166667,0 L570.944444,0 C570.944444,13.193469 581.639864,23.8888889 594.833333,23.8888889 C608.026802,23.8888889 618.722222,13.193469 618.722222,0 L666.5,0 C666.5,13.193469 677.19542,23.8888889 690.388889,23.8888889 C703.582358,23.8888889 714.277778,13.193469 714.277778,0 L762.055556,0 C762.055556,13.193469 772.750975,23.8888889 785.944444,23.8888889 C799.137913,23.8888889 809.833333,13.193469 809.833333,0 L929.277778,0 L929.277778,119.444444 C916.084309,119.444444 905.388889,130.139864 905.388889,143.333333 C905.388889,156.526802 916.084309,167.222222 929.277778,167.222222 L929.277778,215 C916.084309,215 905.388889,225.69542 905.388889,238.888889 C905.388889,252.082358 916.084309,262.777778 929.277778,262.777778 L929.277778,310.555556 C916.084309,310.555556 905.388889,321.250975 905.388889,334.444444 C905.388889,347.637913 916.084309,358.333333 929.277778,358.333333 L929.277778,406.111111 C916.084309,406.111111 905.388889,416.806531 905.388889,430 C905.388889,443.193469 916.084309,453.888889 929.277778,453.888889 L929.277778,501.666667 C916.084309,501.666667 905.388889,512.362087 905.388889,525.555556 C905.388889,538.749025 916.084309,549.444444 929.277778,549.444444 L929.277778,597.222222 C916.084309,597.222222 905.388889,607.917642 905.388889,621.111111 C905.388889,634.30458 916.084309,645 929.277778,645 L929.277778,692.777778 C916.084309,692.777778 905.388889,703.473198 905.388889,716.666667 C905.388889,729.860136 916.084309,740.555556 929.277778,740.555556 L929.277778,860 L809.833333,860 C809.833333,846.806531 799.137913,836.111111 785.944444,836.111111 C772.750975,836.111111 762.055556,846.806531 762.055556,860 Z M335.240741,781.166667 L335.240741,82.0185185 L854.425926,82.0185185 L854.425926,781.166667 L335.240741,781.166667 Z M870.351852,66.0925926 L319.314815,66.0925926 L319.314815,797.092593 L870.351852,797.092593 L870.351852,66.0925926 Z" id="Stamp" fill="#FFFFFF"></path>
                    <path d="M0,602.889283 L0,552.291935 C3.53718828,550.35738 7.06144419,548.544613 10.573499,546.853564 C57.5035535,529.32065 104.120676,528.851589 149.563961,545.528614 C155.339461,548.354484 161.108252,551.546884 166.874201,555.105445 C180.821403,563.713218 194.967592,570.64119 209.288063,575.893735 C255.857466,598.672783 304.066133,597.934981 355.769716,573.351719 C368.332271,568.599395 380.958216,562.712681 393.633609,555.694047 L393.407475,555.252806 C398.714121,552.180947 403.991063,549.381277 409.240745,546.853564 C456.170811,529.320648 502.787935,528.85159 548.23122,545.528619 C554.006707,548.354484 559.775498,551.546884 565.541447,555.105445 C579.48865,563.713218 593.634838,570.64119 607.955309,575.893735 C654.524712,598.672783 702.73338,597.934981 754.436962,573.351719 C757.768418,572.091453 761.104332,570.751411 764.444444,569.331638 L764.444444,620.117966 C734.430284,636.027287 705.612796,644.034142 677.638426,644.20113 C677.281595,644.202953 676.924843,644.203807 676.568169,644.203694 C647.253514,644.169045 618.861162,635.512956 590.983332,618.30764 C555.156373,596.196373 518.396802,585.158839 481.150435,585.152456 C480.950166,585.152314 480.749877,585.152599 480.549564,585.153309 C443.620051,585.264585 406.214479,596.21686 368.767203,617.968649 L368.991767,618.38635 C337.818776,635.446441 307.942826,644.028189 278.971179,644.20113 C278.614349,644.202953 278.257597,644.203807 277.900923,644.203694 C248.586268,644.169045 220.193916,635.512956 192.316086,618.30764 C156.489127,596.196373 119.729555,585.158839 82.4831889,585.152456 C82.2829237,585.152314 82.0826334,585.152599 81.8823181,585.153309 C54.7872952,585.234951 27.4360058,591.152405 1.57588831e-09,602.889284 L0,602.889283 Z M0,509.008808 L0,458.41146 C3.53718828,456.476905 7.06144419,454.664138 10.573499,452.973089 C57.5035535,435.440175 104.120676,434.971114 149.563961,451.648139 C155.339461,454.474009 161.108252,457.666409 166.874201,461.22497 C180.821403,469.832743 194.967592,476.760715 209.288063,482.01326 C255.857466,504.792308 304.066133,504.054506 355.769716,479.471244 C368.332271,474.71892 380.958216,468.832206 393.633609,461.813572 L393.407475,461.372331 C398.714121,458.300472 403.991063,455.500802 409.240745,452.973089 C456.170811,435.440173 502.787935,434.971115 548.23122,451.648144 C554.006707,454.474009 559.775498,457.666409 565.541447,461.22497 C579.48865,469.832743 593.634838,476.760715 607.955309,482.01326 C654.524712,504.792308 702.73338,504.054506 754.436962,479.471244 C757.768418,478.210978 761.104332,476.870936 764.444444,475.451163 L764.444444,526.237491 C734.430284,542.146812 705.612796,550.153667 677.638426,550.320655 C677.281595,550.322478 676.924843,550.323332 676.568169,550.323219 C647.253514,550.28857 618.861162,541.632481 590.983332,524.427165 C555.156373,502.315898 518.396802,491.278364 481.150435,491.271981 C480.950166,491.271839 480.749877,491.272124 480.549564,491.272834 C443.620051,491.38411 406.214479,502.336385 368.767203,524.088174 L368.991767,524.505875 C337.818776,541.565966 307.942826,550.147714 278.971179,550.320655 C278.614349,550.322478 278.257597,550.323332 277.900923,550.323219 C248.586268,550.28857 220.193916,541.632481 192.316086,524.427165 C156.489127,502.315898 119.729555,491.278364 82.4831889,491.271981 C82.2829237,491.271839 82.0826334,491.272124 81.8823181,491.272834 C54.7872952,491.354477 27.4360058,497.27193 1.57588831e-09,509.008809 L0,509.008808 Z M0,363.329423 C65.3592199,335.369331 130.237667,340.434942 192.316086,378.74778 C248.063556,413.153357 305.868505,413.372072 368.99176,378.826477 L368.767203,378.408789 C444.191459,334.597525 519.446528,334.597525 590.983332,378.74778 C645.783133,412.568485 702.571056,413.354756 764.444444,380.558096 L764.444444,432.357016 C734.430284,448.266337 705.612796,456.273192 677.638426,456.44018 C677.281595,456.442003 676.924843,456.442858 676.568169,456.442744 C647.253514,456.408095 618.861162,447.752006 590.983332,430.54669 C555.156373,408.435423 518.396802,397.397889 481.150435,397.391506 C480.950166,397.391364 480.749877,397.391649 480.549564,397.39236 C443.620051,397.503635 406.214479,408.45591 368.767203,430.207699 L368.991767,430.6254 C337.818776,447.685491 307.942826,456.267239 278.971179,456.44018 C278.614349,456.442003 278.257597,456.442858 277.900923,456.442744 C248.586268,456.408095 220.193916,447.752006 192.316086,430.54669 C156.489127,408.435423 119.729555,397.397889 82.4831889,397.391506 C82.2829237,397.391364 82.0826334,397.391649 81.8823181,397.39236 C54.7872952,397.474002 27.4360058,403.391455 1.57588831e-09,415.128334 L0,363.329423 Z" id="Stamp-Lines" fill="#D12820" fill-rule="nonzero"></path>
                </g>
            </g>
        </g>
    </g>
</svg>