<?xml version="1.0" encoding="UTF-8"?>
<svg width="127px" height="50px" viewBox="0 0 127 50" version="1.1" xmlns="http://www.w3.org/2000/svg" xmlns:xlink="http://www.w3.org/1999/xlink">
    <!-- Generator: Sketch 49 (51002) - http://www.bohemiancoding.com/sketch -->
    <title>Stamp-Lines</title>
    <desc>Created with Sketch.</desc>
    <defs></defs>
    <g id="Page-1" stroke="none" stroke-width="1" fill="none" fill-rule="evenodd">
        <path d="M0.5,42.7319595 L0.5,34.4039396 C1.08219997,34.0855234 1.66227136,33.7871528 2.24033451,33.5088163 C9.96473997,30.6230038 17.6376388,30.5457992 25.1173309,33.2907375 C26.0679434,33.7558587 27.0174518,34.2813086 27.9664924,34.8670265 C30.2621184,36.2838142 32.5904961,37.4241168 34.9475597,38.2886543 C42.6126042,42.0379488 50.5474616,41.9165111 59.0575612,37.8702537 C61.1252823,37.0880496 63.2034371,36.1191319 65.2897308,34.9639068 L65.2525105,34.8912812 C66.1259526,34.3856716 66.9945057,33.9248628 67.8585718,33.5088163 C75.5829791,30.6230035 83.2558781,30.5457994 90.7355703,33.2907383 C91.6861807,33.7558587 92.6356891,34.2813086 93.5847297,34.8670265 C95.8803556,36.2838142 98.2087334,37.4241168 100.565797,38.2886543 C108.230841,42.0379488 116.165699,41.9165111 124.675798,37.8702537 C125.224136,37.6628215 125.773208,37.4422586 126.32297,37.2085725 L126.32297,45.567697 C121.382819,48.186276 116.639634,49.504157 112.03522,49.531642 C111.976488,49.531942 111.917769,49.532082 111.859062,49.532064 C107.034046,49.526361 102.360835,48.10162 97.7723114,45.269729 C91.8754088,41.6303467 85.8250039,39.8136348 79.6944754,39.8125841 C79.6615123,39.8125608 79.628546,39.8126077 79.5955757,39.8127247 C73.5171993,39.8310399 67.3604666,41.6337187 61.1968695,45.213933 L61.2338314,45.282684 C56.1029441,48.090672 51.185542,49.503177 46.4169827,49.531642 C46.3582505,49.531942 46.2995313,49.532082 46.2408249,49.532064 C41.4158085,49.526361 36.7425978,48.10162 32.1540741,45.269729 C26.2571716,41.6303467 20.2067666,39.8136348 14.0762381,39.8125841 C14.0432757,39.8125608 14.0103091,39.8126077 13.9773384,39.8127247 C9.51766014,39.8261625 5.01580198,40.8001398 0.5,42.7319596 Z M0.5,27.2797965 L0.5,18.9517766 C1.08219997,18.6333604 1.66227136,18.3349898 2.24033451,18.0566533 C9.96473997,15.1708408 17.6376388,15.0936362 25.1173309,17.8385745 C26.0679434,18.3036956 27.0174518,18.8291455 27.9664924,19.4148634 C30.2621184,20.8316512 32.5904961,21.9719538 34.9475597,22.8364913 C42.6126042,26.5857858 50.5474616,26.4643481 59.0575612,22.4180907 C61.1252823,21.6358866 63.2034371,20.6669688 65.2897308,19.5117438 L65.2525105,19.4391182 C66.1259526,18.9335086 66.9945057,18.4726998 67.8585718,18.0566533 C75.5829791,15.1708405 83.2558781,15.0936364 90.7355703,17.8385753 C91.6861807,18.3036956 92.6356891,18.8291455 93.5847297,19.4148634 C95.8803556,20.8316512 98.2087334,21.9719538 100.565797,22.8364913 C108.230841,26.5857858 116.165699,26.4643481 124.675798,22.4180907 C125.224136,22.2106585 125.773208,21.9900955 126.32297,21.7564095 L126.32297,30.1155343 C121.382819,32.7341132 116.639634,34.0519935 112.03522,34.0794788 C111.976488,34.0797788 111.917769,34.0799194 111.859062,34.0799007 C107.034046,34.0741977 102.360835,32.6494574 97.7723114,29.8175656 C91.8754088,26.1781837 85.8250039,24.3614718 79.6944754,24.3604211 C79.6615123,24.3603978 79.628546,24.3604446 79.5955757,24.3605616 C73.5171993,24.3788769 67.3604666,26.1815557 61.1968695,29.7617696 L61.2338314,29.8305208 C56.1029441,32.6385093 51.185542,34.0510137 46.4169827,34.0794788 C46.3582505,34.0797788 46.2995313,34.0799194 46.2408249,34.0799007 C41.4158085,34.0741977 36.7425978,32.6494574 32.1540741,29.8175656 C26.2571716,26.1781837 20.2067666,24.3614718 14.0762381,24.3604211 C14.0432757,24.3603978 14.0103091,24.3604446 13.9773384,24.3605616 C9.51766014,24.3739994 5.01580198,25.3479767 0.5,27.2797966 Z M0.5,3.3018436 C11.2577355,-1.3002198 21.9363388,-0.4664506 32.1540741,5.8396126 C41.3297733,11.5025642 50.8441211,11.5385634 61.2338303,5.8525657 L61.1968695,5.7838167 C73.6112496,-1.4272544 85.9977826,-1.4272544 97.7723114,5.8396126 C106.79203,11.4062979 116.138981,11.5357134 126.32297,6.1375798 L126.32297,14.6633713 C121.382819,17.2819502 116.639634,18.5998305 112.03522,18.6273157 C111.976488,18.6276157 111.917769,18.6277564 111.859062,18.6277376 C107.034046,18.6220346 102.360835,17.1972943 97.7723114,14.3654025 C91.8754089,10.7260207 85.8250039,8.9093088 79.6944754,8.9082581 C79.6615123,8.9082348 79.628546,8.9082816 79.5955757,8.9083986 C73.5171993,8.9267138 67.3604666,10.7293927 61.1968695,14.3096066 L61.2338314,14.3783577 C56.1029441,17.1863463 51.185542,18.5988507 46.4169827,18.6273157 C46.3582505,18.6276157 46.2995313,18.6277564 46.2408249,18.6277376 C41.4158085,18.6220346 36.7425978,17.1972943 32.1540741,14.3654025 C26.2571716,10.7260207 20.2067666,8.9093088 14.0762381,8.9082581 C14.0432757,8.9082348 14.0103091,8.9082816 13.9773384,8.9083986 C9.51766014,8.9218364 5.01580198,9.8958137 0.5,11.8276336 L0.5,3.3018436 Z" id="Stamp-Lines" fill="#D12820" fill-rule="nonzero"></path>
    </g>
</svg>